<?xml version="1.0" standalone="no"?>
<!DOCTYPE svg PUBLIC "-//W3C//DTD SVG 1.1//EN" "http://www.w3.org/Graphics/SVG/1.1/DTD/svg11.dtd" >
<svg xmlns="http://www.w3.org/2000/svg" xmlns:xlink="http://www.w3.org/1999/xlink" version="1.1">
<metadata></metadata>
<defs>
<font id="webfontregular" horiz-adv-x="1024" >
<font-face units-per-em="2048" ascent="1495" descent="-553" />
<missing-glyph horiz-adv-x="419" />
<glyph horiz-adv-x="0" />
<glyph unicode="&#xd;" horiz-adv-x="682" />
<glyph unicode=" "  horiz-adv-x="419" />
<glyph unicode="&#x09;" horiz-adv-x="419" />
<glyph unicode="&#xa0;" horiz-adv-x="419" />
<glyph unicode="!" horiz-adv-x="653" d="M170 117q0 70 41 110.5t115 40.5q72 0 114.5 -40t42.5 -105q0 -68 -43 -109t-114 -41q-74 0 -115 40.5t-41 103.5zM193 989v486h276v-486l-27 -553h-225z" />
<glyph unicode="&#x22;" horiz-adv-x="776" d="M119 903v572h209v-572h-209zM449 903v572h208v-572h-208z" />
<glyph unicode="#" horiz-adv-x="1431" d="M88 360v172h264l84 246h-229v172h289l131 373l166 -37l-117 -336h272l133 367l164 -31l-119 -336h224v-172h-285l-82 -246h248v-172h-305l-127 -344l-164 37l110 307h-272l-127 -344l-162 37l109 307h-205zM532 532h271l86 246h-277z" />
<glyph unicode="$" horiz-adv-x="1097" d="M29 209l127 162q188 -160 379 -160q98 0 157.5 42t59.5 122q0 88 -57.5 138t-231.5 93q-195 49 -289 145.5t-94 260.5q0 154 100.5 254t259.5 125v172h217v-174q213 -39 344 -181l-118 -145q-147 131 -326 131q-98 0 -157.5 -39t-59.5 -117q0 -82 66.5 -131t238.5 -100 q199 -59 288 -151.5t89 -256.5q0 -158 -99.5 -261t-265.5 -132v-186h-219v186q-123 18 -231 74.5t-178 128.5z" />
<glyph unicode="%" horiz-adv-x="1935" d="M78 1091.5q0 159.5 103.5 263t271.5 103.5q166 0 270 -101.5t104 -258.5q0 -156 -106.5 -259.5t-267.5 -103.5q-172 0 -273.5 98.5t-101.5 258zM287 1098q0 -80 45 -128t120.5 -48t119.5 49t44 127t-44 128t-119.5 50t-120.5 -49t-45 -129zM414 0l899 1475h225 l-903 -1475h-221zM1108 336q0 160 104.5 263t272.5 103q166 0 269.5 -102t103.5 -258t-105.5 -258t-267.5 -102q-174 0 -275.5 98t-101.5 256zM1317 342q0 -80 46 -128t122 -48q74 0 118 49t44 127t-44 128t-118 50q-78 0 -123 -50t-45 -128z" />
<glyph unicode="&#x26;" horiz-adv-x="1513" d="M135 403q0 293 316 453q-137 147 -138 303q0 139 107.5 235.5t281.5 96.5q162 0 267.5 -84t105.5 -229q0 -211 -260 -357l160 -176l219 201l160 -162l-230 -207l297 -338l-190 -159l-170 186q-104 -104 -211 -150.5t-250 -46.5q-207 0 -336 119.5t-129 314.5zM391 428 q0 -102 67.5 -171t180.5 -69q160 0 281 146l-336 377q-193 -95 -193 -283zM565 1169q0 -86 121 -213q166 96 166 213q0 59 -37 95t-104.5 36t-106.5 -37t-39 -94z" />
<glyph unicode="'" horiz-adv-x="446" d="M119 903v572h209v-572h-209z" />
<glyph unicode="(" horiz-adv-x="749" d="M115 614q0 502 346 897l186 -96q-143 -203 -206.5 -384t-63.5 -413q0 -219 64.5 -395t217.5 -385l-159 -108q-176 160 -280.5 392t-104.5 492z" />
<glyph unicode=")" horiz-adv-x="749" d="M90 -162q154 209 218.5 385t64.5 395q0 231 -63.5 412.5t-207.5 384.5l187 96q346 -395 346 -897q0 -260 -104.5 -492.5t-280.5 -391.5z" />
<glyph unicode="*" horiz-adv-x="935" d="M102 1176l48 116l225 -51l28 236h119l31 -234l238 51l43 -118l-224 -86l133 -209l-98 -74l-182 190l-184 -190l-103 74l139 209z" />
<glyph unicode="+" horiz-adv-x="1228" d="M78 516v172h446v451h178v-451h447v-172h-447v-448h-178v448h-446z" />
<glyph unicode="," horiz-adv-x="512" d="M84 -219q168 80 174 219q-31 -10 -53 -10q-53 0 -84 34.5t-31 90.5q0 61 44 103t108 42q82 0 125 -56.5t43 -140.5q0 -129 -73 -229t-212 -149z" />
<glyph unicode="-" horiz-adv-x="671" d="M61 461v215h549v-215h-549z" />
<glyph unicode="." horiz-adv-x="518" d="M102 117q0 70 41 110.5t115 40.5q72 0 115 -40t43 -105q0 -68 -43 -109t-115 -41q-74 0 -115 40.5t-41 103.5z" />
<glyph unicode="/" horiz-adv-x="825" d="M37 -188l491 1701h224l-496 -1701h-219z" />
<glyph unicode="0" horiz-adv-x="1253" d="M102 721q0 371 136.5 562.5t392.5 191.5q252 0 386 -189.5t134 -550.5q0 -379 -136 -570.5t-394 -191.5q-254 0 -386.5 188.5t-132.5 559.5zM371 721q0 -518 256 -518t256 522t-256 522t-256 -526z" />
<glyph unicode="1" horiz-adv-x="991" d="M72 1200q113 29 227.5 97.5t189.5 156.5h205v-1249h267v-205h-834v205h301v917q-152 -82 -322 -102z" />
<glyph unicode="2" horiz-adv-x="1087" d="M41 1255q238 219 506 220q180 0 304 -102.5t124 -285.5q0 -117 -38 -205.5t-130 -201.5l-379 -463h567v-217h-921v164l501 606q72 88 103 150.5t31 132.5q0 86 -58.5 139t-148.5 53q-133 0 -344 -155z" />
<glyph unicode="3" horiz-adv-x="1107" d="M33 172l121 160q170 -139 350 -139q113 0 181.5 56t68.5 163q0 225 -269 227q-88 0 -129 -8v215q141 4 235.5 68.5t94.5 170.5q0 86 -53 128t-141 42q-145 0 -302 -94l-100 166q211 147 447 148q182 0 294.5 -94.5t112.5 -258.5q0 -123 -70.5 -215t-199.5 -131v-6 q164 -16 249 -111.5t85 -248.5q0 -203 -139.5 -320t-348.5 -117q-290 0 -487 199z" />
<glyph unicode="4" horiz-adv-x="1189" d="M61 313v197l572 944h342v-922h164v-219h-164v-313h-256v313h-658zM315 532h404v680z" />
<glyph unicode="5" horiz-adv-x="1110" d="M55 129l88 172q193 -104 336 -104q123 0 201 69.5t78 204.5q0 254 -217 254q-121 0 -203 -86l-10 -107h-217l71 922h756l-14 -229h-535l-37 -387q102 90 266 90q186 0 291 -117t105 -336q0 -242 -142.5 -372t-363.5 -130q-265 0 -453 156z" />
<glyph unicode="6" horiz-adv-x="1153" d="M96 635q0 406 143.5 623t409.5 217q180 0 359 -107l-80 -178q-129 74 -252 74q-84 0 -147.5 -40t-101.5 -112t-58.5 -158t-24.5 -190q156 152 334 151q180 0 285.5 -118.5t105.5 -319.5q0 -252 -130 -378t-343 -126q-500 0 -500 662zM350 580q6 -209 65.5 -303.5 t178.5 -94.5q100 0 161.5 67.5t61.5 205.5q0 248 -211 247q-74 0 -142.5 -37.5t-113.5 -84.5z" />
<glyph unicode="7" horiz-adv-x="974" d="M37 1227v227h913v-115l-524 -1339h-266v27l475 1200h-598z" />
<glyph unicode="8" horiz-adv-x="1138" d="M72 367q0 262 282 403q-100 43 -162.5 128t-62.5 202q0 168 122 271.5t327 103.5q193 0 311.5 -96.5t118.5 -252.5q0 -111 -64.5 -197.5t-163.5 -142.5q283 -137 283 -385q0 -201 -139.5 -314.5t-372.5 -113.5q-227 0 -353 104t-126 290zM322 387q0 -96 61 -150.5 t174 -54.5q106 0 171 60.5t65 156.5q0 53 -24 97.5t-69 78t-81.5 53t-90.5 42.5q-206 -107 -206 -283zM391 1104q0 -131 203 -221q68 37 118 99t50 132q0 166 -189 166q-86 0 -134 -48t-48 -128z" />
<glyph unicode="9" horiz-adv-x="1142" d="M68 979q0 233 133 364.5t340 131.5q248 0 374.5 -168t126.5 -471q0 -420 -141 -641.5t-393 -221.5q-229 0 -389 115l86 176q141 -82 276 -82q272 0 310 480q-143 -133 -327.5 -133.5t-290 125.5t-105.5 325zM315 995q0 -129 59.5 -191.5t157.5 -62.5q147 0 254 123 q0 186 -63.5 291t-181.5 105q-98 0 -162 -67t-64 -198z" />
<glyph unicode=":" horiz-adv-x="518" d="M102 117q0 70 41 110.5t115 40.5q72 0 115 -40t43 -105q0 -68 -43 -109t-115 -41q-74 0 -115 40.5t-41 103.5zM102 889q0 70 41 110.5t115 40.5q72 0 115 -39.5t43 -105.5q0 -68 -43 -109t-115 -41q-74 0 -115 40.5t-41 103.5z" />
<glyph unicode=";" horiz-adv-x="518" d="M90 -219q168 80 174 219q-31 -10 -53 -10q-53 0 -84 34.5t-31 90.5q0 61 44 103t108 42q82 0 125 -56.5t43 -140.5q0 -129 -73 -229t-212 -149zM100 889q0 70 41 110.5t115 40.5q72 0 115 -39.5t43 -105.5q0 -68 -43 -109t-115 -41q-74 0 -115 40.5t-41 103.5z" />
<glyph unicode="&#x3c;" horiz-adv-x="1228" d="M47 543v127l1083 454l74 -176l-827 -342l831 -338l-73 -178z" />
<glyph unicode="=" horiz-adv-x="1228" d="M80 324v174h1067v-174h-1067zM80 696v172h1067v-172h-1067z" />
<glyph unicode="&#x3e;" horiz-adv-x="1228" d="M25 270l827 340l-825 342l73 176l1084 -454v-127l-1086 -453z" />
<glyph unicode="?" horiz-adv-x="1120" d="M88 1034q0 231 133 348t357 117q193 0 322.5 -99.5t129.5 -283.5q0 -86 -36 -161.5t-87 -131t-102 -107.5t-87 -113.5t-36 -125.5v-41h-244v68q0 80 33 150.5t80 121.5t93 98.5t79 102.5t33 113q0 88 -52.5 133t-142.5 45q-98 0 -159.5 -60.5t-61.5 -173.5h-252zM401 117 q0 70 42 110.5t116 40.5q70 0 114 -40t44 -105.5t-44 -107.5t-114 -42q-74 0 -116 40.5t-42 103.5z" />
<glyph unicode="@" horiz-adv-x="2025" d="M154 389q0 410 274 675t678 265q350 0 567 -191.5t217 -502.5q0 -274 -156.5 -452.5t-367.5 -178.5q-209 0 -219 160q-102 -158 -293 -158q-139 0 -206.5 90t-67.5 236q0 227 147 388t381 161q170 0 313 -82l-118 -469q-43 -176 90 -176q98 0 175 74.5t112.5 180 t35.5 216.5q0 266 -168 408.5t-448 142.5q-338 0 -554 -223.5t-216 -565.5q0 -307 193.5 -484t504.5 -177q328 0 586 190l80 -123q-135 -104 -316.5 -159.5t-363.5 -55.5q-377 0 -618.5 217t-241.5 594zM756 340q0 -197 149 -197q84 0 148.5 68t91.5 166l82 323 q-49 31 -137 31q-154 0 -244 -114.5t-90 -276.5z" />
<glyph unicode="A" horiz-adv-x="1413" d="M33 0l530 1475h285l530 -1475h-303l-108 334h-521l-108 -334h-305zM522 571h367l-184 580z" />
<glyph unicode="B" horiz-adv-x="1335" d="M150 0v1475h544q258 0 383 -89.5t125 -273.5q0 -117 -65.5 -209t-190.5 -121v-4q160 -23 239 -122t79 -218q0 -125 -46.5 -213t-133.5 -136t-192.5 -68.5t-240.5 -20.5h-501zM432 240h297q119 0 182.5 55t63.5 156q0 200 -251 200h-3h-289v-411zM432 868h225 q119 0 186.5 48.5t67.5 146.5q0 178 -225 178h-254v-373z" />
<glyph unicode="C" horiz-adv-x="1392" d="M102 737q0 338 173.5 550t490.5 212q240 0 394.5 -133t166.5 -385h-285q-8 113 -72.5 187.5t-201.5 74.5q-170 0 -266 -132t-96 -372q0 -250 99 -380t277 -130q203 0 400 170l151 -186q-248 -240 -579 -240q-319 0 -485.5 210t-166.5 554z" />
<glyph unicode="D" horiz-adv-x="1480" d="M150 0v1475h485q358 0 545.5 -188.5t187.5 -532.5q0 -393 -190.5 -573.5t-585.5 -180.5h-442zM432 248h207q223 0 328.5 120.5t105.5 364.5q0 492 -434 492h-207v-977z" />
<glyph unicode="E" horiz-adv-x="1241" d="M150 0v1475h980v-250h-698v-355h635v-249h-635v-373h711v-248h-993z" />
<glyph unicode="F" horiz-adv-x="1165" d="M150 0v1475h944v-250h-662v-377h584v-244h-584v-604h-282z" />
<glyph unicode="G" horiz-adv-x="1495" d="M102 737q0 348 173.5 555t506.5 207q289 0 426.5 -132t151.5 -349h-293q-6 102 -74.5 163.5t-210.5 61.5q-184 0 -283.5 -136t-99.5 -366q0 -516 416 -516q182 0 283 84v242h-262v235h532v-585q-207 -227 -569 -228q-188 0 -327.5 60.5t-217.5 168t-115 240.5t-37 295z " />
<glyph unicode="H" horiz-adv-x="1472" d="M150 0v1475h282v-601h608v601h283v-1475h-283v618h-608v-618h-282z" />
<glyph unicode="I" horiz-adv-x="589" d="M154 0v1475h282v-1475h-282z" />
<glyph unicode="J" horiz-adv-x="874" d="M51 29l35 221q92 -33 190 -33q96 0 133 44t37 161v1053h285v-1096q0 -406 -362 -406q-187 1 -318 56z" />
<glyph unicode="K" horiz-adv-x="1382" d="M150 0v1475h282v-609h207l338 609h315l-409 -719l465 -756h-328l-385 633h-203v-633h-282z" />
<glyph unicode="L" horiz-adv-x="1144" d="M150 0v1475h282v-1225h641v-250h-923z" />
<glyph unicode="M" horiz-adv-x="1804" d="M100 0l144 1475h303l356 -1084l365 1084h291l145 -1475h-266l-97 995l-323 -995h-227l-324 997l-96 -997h-271z" />
<glyph unicode="N" horiz-adv-x="1484" d="M150 0v1475h249l656 -998v998h280v-1475h-248l-659 985v-985h-278z" />
<glyph unicode="O" horiz-adv-x="1609" d="M102 745q0 352 191.5 553t511.5 201q322 0 512 -200.5t190 -553.5q0 -371 -189.5 -571.5t-513 -200.5t-513 201.5t-189.5 570.5zM399 745q0 -246 106.5 -380t299.5 -134q195 0 300 133.5t105 380.5q0 229 -107.5 362.5t-295.5 133.5q-193 0 -300.5 -134.5t-107.5 -361.5z " />
<glyph unicode="P" horiz-adv-x="1290" d="M150 0v1475h534q252 0 386 -124t134 -350q0 -231 -136 -359t-404 -128h-232v-514h-282zM432 745h217q135 0 205 63.5t70 180.5q0 242 -262 242h-230v-486z" />
<glyph unicode="Q" horiz-adv-x="1609" d="M102 745q0 352 191.5 553t511.5 201q322 0 512 -200.5t190 -553.5q0 -217 -78.5 -376.5t-218.5 -245.5v-10l293 -93l-94 -229l-522 186q-53 -4 -82 -4q-324 0 -513.5 201.5t-189.5 570.5zM399 745q0 -246 106.5 -380t299.5 -134q195 0 300 133.5t105 380.5 q0 229 -107.5 362.5t-295.5 133.5q-193 0 -300.5 -134.5t-107.5 -361.5z" />
<glyph unicode="R" horiz-adv-x="1357" d="M150 0v1475h530q264 0 402.5 -123t138.5 -338q0 -283 -236 -406l315 -608h-307l-272 543q-72 -10 -131 -11h-158v-532h-282zM432 760h223q276 0 277 241q0 229 -264 230h-236v-471z" />
<glyph unicode="S" horiz-adv-x="1251" d="M59 219l142 174q221 -184 436 -184q98 0 160.5 52t62.5 140q0 86 -63.5 138.5t-245.5 103.5q-233 66 -332.5 161t-99.5 267q0 209 142 318.5t370 109.5q297 0 504 -207l-138 -168q-164 145 -360 146q-102 0 -164.5 -44t-62.5 -126q0 -88 69.5 -132t272.5 -112 q219 -72 311 -165t92 -261q0 -213 -143.5 -335t-384.5 -122q-335 0 -568 246z" />
<glyph unicode="T" horiz-adv-x="1255" d="M45 1225v250h1165v-250h-440v-1225h-283v1225h-442z" />
<glyph unicode="U" horiz-adv-x="1456" d="M143 557v918h283v-906q0 -172 80 -258t223 -86q156 0 228.5 85t72.5 259v906h283v-918q0 -287 -150.5 -434.5t-435.5 -147.5q-281 0 -432.5 143.5t-151.5 438.5z" />
<glyph unicode="V" horiz-adv-x="1323" d="M29 1475h297l336 -1145l342 1145h290l-471 -1475h-329z" />
<glyph unicode="W" horiz-adv-x="1923" d="M31 1475h288l263 -1108l252 1108h258l256 -1108l254 1108h290l-374 -1475h-301l-254 1038l-250 -1038h-307z" />
<glyph unicode="X" horiz-adv-x="1325" d="M33 0l456 752l-440 723h313l302 -510l307 510h321l-465 -744l455 -731h-324l-301 500l-295 -500h-329z" />
<glyph unicode="Y" horiz-adv-x="1308" d="M20 1475h310l319 -607l322 607h317l-500 -887v-588h-284v588z" />
<glyph unicode="Z" horiz-adv-x="1280" d="M74 0v180l710 1045h-669v250h1091v-113l-774 -1114h772v-248h-1130z" />
<glyph unicode="[" horiz-adv-x="724" d="M154 -256v1731h464v-203h-208v-1327h208v-201h-464z" />
<glyph unicode="\" horiz-adv-x="821" d="M70 1513h223l491 -1701h-219z" />
<glyph unicode="]" horiz-adv-x="724" d="M106 -55h209v1327h-209v203h465v-1731h-465v201z" />
<glyph unicode="^" horiz-adv-x="1445" d="M172 936l465 483h166l467 -493l-129 -109l-418 422l-420 -424z" />
<glyph unicode="_" horiz-adv-x="993" d="M-6 -258h1005v-188h-1005v188z" />
<glyph unicode="`" d="M297 1444l141 170l320 -293l-121 -135z" />
<glyph unicode="a" horiz-adv-x="1134" d="M86 291q0 145 118 243.5t376 98.5q86 0 153 -8v80q0 184 -184 184q-90 0 -160 -24.5t-160 -78.5l-92 164q197 156 441 156q428 0 428 -397v-709h-218l-28 145q-117 -172 -340 -172q-152 0 -243 82t-91 236zM356 295q0 -121 148 -121q100 0 164.5 76t64.5 166v28 q-51 10 -129 11q-248 0 -248 -160z" />
<glyph unicode="b" horiz-adv-x="1275" d="M137 0v1475h273v-519q129 150 325 150q201 0 321 -145.5t120 -415.5q0 -272 -117 -421t-359 -149q-205 0 -325 158l-23 -133h-215zM410 326q88 -125 235 -125q242 0 242 336q0 344 -234 344q-137 0 -243 -144v-411z" />
<glyph unicode="c" horiz-adv-x="1134" d="M94 539q0 258 146.5 412.5t386.5 154.5q207 0 320.5 -110.5t119.5 -321.5h-227q-10 104 -65.5 157.5t-143.5 53.5q-117 0 -183.5 -86t-66.5 -250q0 -160 67.5 -254t198.5 -94t307 98l101 -172q-186 -154 -447 -154q-233 0 -373.5 151t-140.5 415z" />
<glyph unicode="d" horiz-adv-x="1269" d="M100 537q0 268 126 418.5t329 150.5q178 0 311 -143v512h271v-1475h-242l-14 139q-121 -166 -336 -166q-221 0 -333 149t-112 415zM387 541q0 -338 246 -338q129 0 231 121v428q-101 122 -235 122h-2q-113 0 -176.5 -83.5t-63.5 -249.5z" />
<glyph unicode="e" horiz-adv-x="1169" d="M94 532q0 262 142.5 418t381.5 156q227 0 346 -132t119 -392q0 -96 -4 -133h-698q20 -250 268 -250q141 0 318 92l88 -178q-188 -139 -439 -140q-246 0 -384 144.5t-138 414.5zM383 645h440q0 256 -202 256q-119 0 -176.5 -83t-61.5 -173z" />
<glyph unicode="f" horiz-adv-x="673" d="M55 877v161l135 31v113q0 150 75 233.5t229 83.5q100 0 180 -22l-15 -179q-49 14 -94 15q-102 0 -102 -121v-111h186v-204h-186v-877h-273v877h-135z" />
<glyph unicode="g" horiz-adv-x="1280" d="M100 535q0 262 119 416.5t342 154.5q190 0 332 -164l18 139h226v-1022q0 -270 -120 -379.5t-388 -109.5q-213 0 -391 68l43 198q197 -53 327 -53q147 0 206.5 63.5t59.5 214.5v101q-125 -156 -331 -156q-213 0 -328 136.5t-115 392.5zM387 551q0 -319 242 -320 q129 0 235 117v400q-35 47 -100.5 86.5t-138.5 39.5h-1q-237 0 -237 -323z" />
<glyph unicode="h" horiz-adv-x="1208" d="M137 0v1475h273v-525q141 156 333 156q162 0 249 -100.5t87 -282.5v-723h-272v655q0 106 -36 162.5t-136 56.5q-119 0 -225 -120v-754h-273z" />
<glyph unicode="i" horiz-adv-x="569" d="M127 1358q0 68 46 104.5t116 36.5q74 0 119 -37t45 -104q0 -66 -45.5 -101.5t-118.5 -35.5q-70 0 -116 37t-46 100zM150 0v1081h270v-1081h-270z" />
<glyph unicode="j" horiz-adv-x="569" d="M-61 -389l20 190q53 -12 96 -12q51 0 73 25.5t22 97.5v1169h270v-1183q0 -156 -69.5 -236t-225.5 -80q-96 0 -186 29zM123 1358q0 68 46 104.5t118 36.5q74 0 119 -37t45 -104q0 -66 -45.5 -101.5t-118.5 -35.5q-70 0 -117 37t-47 100z" />
<glyph unicode="k" horiz-adv-x="1161" d="M137 0v1475h273v-766h133l237 372h299l-321 -479l370 -602h-317l-287 483h-114v-483h-273z" />
<glyph unicode="l" horiz-adv-x="559" d="M143 0v1475h273v-1475h-273z" />
<glyph unicode="m" horiz-adv-x="1751" d="M137 0v1081h228l22 -141q141 166 328 166q195 0 262 -162q154 162 344 162q301 0 301 -356v-750h-272v696q0 88 -30 132t-103 44q-96 0 -201 -110v-762h-271v688q0 92 -26.5 138t-100.5 46q-106 0 -208 -114v-758h-273z" />
<glyph unicode="n" horiz-adv-x="1208" d="M137 0v1081h228l22 -143q145 168 350 168q168 0 255 -100.5t87 -280.5v-725h-272v643q0 121 -42 176t-128 55q-125 0 -227 -120v-754h-273z" />
<glyph unicode="o" horiz-adv-x="1263" d="M94 535q0 272 150.5 421.5t390.5 149.5q238 0 386 -147.5t148 -417.5q0 -268 -152.5 -418t-395.5 -150q-246 0 -386.5 147t-140.5 415zM381 541q0 -174 67.5 -256t182.5 -82q117 0 184.5 82t67.5 256q0 172 -69 256t-183.5 84t-182 -86t-67.5 -254z" />
<glyph unicode="p" horiz-adv-x="1275" d="M137 -410v1491h225l29 -141q147 166 352 166q201 0 317 -144.5t116 -416.5q0 -268 -116 -419t-337 -151q-190 0 -313 134v-519h-273zM410 319q35 -43 99 -79.5t142 -36.5q236 0 236 334q0 342 -230 342q-137 0 -247 -138v-422z" />
<glyph unicode="q" horiz-adv-x="1271" d="M100 537q0 268 128 418.5t337 150.5q182 0 328 -156l35 131h209v-1491h-275v519q-123 -133 -307 -134q-227 0 -341 148t-114 414zM387 541q0 -338 246 -338q131 0 231 119v430q-101 122 -235 122h-2q-113 0 -176.5 -83.5t-63.5 -249.5z" />
<glyph unicode="r" horiz-adv-x="759" d="M137 0v1081h217l25 -155q41 80 104.5 130t134.5 50q49 0 107 -23l-20 -247q-49 14 -103 14q-57 0 -109.5 -41t-82.5 -92v-717h-273z" />
<glyph unicode="s" horiz-adv-x="1064" d="M63 162l121 164q182 -139 342 -140q72 0 112 30t40 81q0 55 -42 86t-173 63q-178 45 -255 120t-77 206q0 156 111.5 245t298.5 89q250 0 430 -164l-121 -158q-160 115 -297 115q-150 0 -150 -96q0 -55 48.5 -82t187.5 -68q180 -51 257 -120.5t77 -200.5 q0 -170 -117 -264.5t-315 -94.5q-281 1 -478 189z" />
<glyph unicode="t" horiz-adv-x="727" d="M53 877v157l146 45l28 312h238v-310h194v-204h-194v-607q0 -88 70 -88q72 0 127 19l26 -187q-119 -41 -254 -41q-240 0 -239 242v662h-142z" />
<glyph unicode="u" horiz-adv-x="1198" d="M129 348v733h272v-667q0 -106 37 -158.5t125 -52.5q125 0 225 116v762h273v-1081h-223l-23 141q-147 -168 -342 -168q-344 0 -344 375z" />
<glyph unicode="v" horiz-adv-x="1099" d="M33 1081h284l238 -817l238 817h274l-356 -1081h-318z" />
<glyph unicode="w" horiz-adv-x="1609" d="M45 1081h270l172 -772l187 772h256l207 -772l157 772h271l-285 -1081h-295l-184 707l-178 -707h-295z" />
<glyph unicode="x" horiz-adv-x="1118" d="M31 0l364 543l-354 538h295l223 -362l225 362h289l-350 -538l362 -543h-292l-234 367l-235 -367h-293z" />
<glyph unicode="y" horiz-adv-x="1087" d="M33 1081h284l224 -798l241 798h273l-365 -1038q-31 -88 -44 -125t-39.5 -100.5t-46 -88t-52.5 -61.5t-67.5 -49t-83 -23.5t-109.5 -11.5q-90 0 -182 25l20 192q76 -14 137 -14q66 0 106 29.5t70 122.5l11 30z" />
<glyph unicode="z" horiz-adv-x="974" d="M84 0v170l469 704h-459v207h807v-120l-495 -756h493v-205h-815z" />
<glyph unicode="{" horiz-adv-x="823" d="M72 487v191h69q92 0 121 50t29 187v170q0 215 84 302.5t299 87.5h84v-191h-76q-78 0 -105.5 -51t-27.5 -172v-244q0 -94 -37 -151.5t-129 -81.5q106 -20 136 -86t30 -205v-184q0 -98 26.5 -136.5t112.5 -38.5h70v-190h-94q-215 0 -294 69.5t-79 254.5v239q0 96 -31 138 t-108 42h-80z" />
<glyph unicode="|" d="M395 -410v1885h232v-1885h-232z" />
<glyph unicode="}" horiz-adv-x="823" d="M66 -66h69q86 0 112.5 38t26.5 137v184q0 139 30 204.5t136 86.5q-92 25 -129 82t-37 151v244q0 121 -27.5 172t-105.5 51h-75v191h84q215 0 298.5 -87.5t83.5 -302.5v-170q0 -137 29 -187t121 -50h70v-191h-80q-78 0 -109 -42t-31 -138v-239q0 -184 -78.5 -254 t-293.5 -70h-94v190z" />
<glyph unicode="~" horiz-adv-x="1597" d="M113 633q227 158 422 158q92 0 269 -61.5t255 -61.5q139 0 323 120l113 -196q-203 -158 -422 -158q-94 0 -272 62.5t-256 62.5q-127 0 -324 -121z" />
<glyph unicode="&#xa1;" horiz-adv-x="653" d="M170 961q0 63 41 103t115 40q72 0 114.5 -41t42.5 -109q0 -66 -43 -105.5t-114 -39.5q-74 0 -115 41t-41 111zM193 88l24 553h225l27 -553v-485h-276v485z" />
<glyph unicode="&#xa2;" horiz-adv-x="1116" d="M102 721q0 227 115 373.5t309 177.5v201h222v-205q152 -29 236.5 -135.5t90.5 -280.5h-227q-18 207 -209 207q-119 0 -184.5 -83t-65.5 -247q0 -160 71.5 -256t203.5 -96q150 0 317 104l78 -168q-141 -115 -311 -143v-207h-224v203q-195 31 -308.5 175t-113.5 380z" />
<glyph unicode="&#xa3;" horiz-adv-x="1085" d="M82 0v195l111 14q121 129 120 258q0 74 -45 180h-184v176h119q-78 152 -78 267q0 168 129 276.5t324 108.5q272 0 436 -183l-111 -151q-141 121 -289 121q-98 0 -156.5 -52.5t-58.5 -140.5t76 -246h318v-176h-265q41 -104 41 -180q0 -127 -108 -252h547v-215h-926z" />
<glyph unicode="&#xa4;" horiz-adv-x="1181" d="M74 291l180 182q-68 98 -68 217q0 113 68 211l-180 184l114 123l181 -186q102 68 221 68q121 0 215 -66l182 180l119 -119l-184 -184q72 -94 71 -211q0 -119 -69 -219l184 -180l-121 -119l-182 182q-100 -66 -215 -65q-117 0 -219 65q-27 -25 -87.5 -87t-95.5 -95z M356 690q0 -102 66.5 -167.5t167.5 -65.5q98 0 164.5 67.5t66.5 165.5q0 100 -66.5 165t-164.5 65q-96 0 -165 -66t-69 -164z" />
<glyph unicode="&#xa5;" horiz-adv-x="1212" d="M39 1454h285l282 -565l293 565h275l-377 -674h301v-174h-371v-135h371v-174h-371v-297h-252v297h-369v174h369v135h-369v174h300z" />
<glyph unicode="&#xa6;" d="M395 -410v848h232v-848h-232zM395 625v850h232v-850h-232z" />
<glyph unicode="&#xa7;" horiz-adv-x="1073" d="M129 147l100 140q162 -119 320 -119q143 0 143 96q0 47 -56 80t-136 56.5t-160 54t-136.5 92t-56.5 151.5q0 92 56.5 159t156.5 95q-197 74 -196 242q0 137 101.5 221t271.5 84q268 0 417 -143l-100 -135q-143 98 -281 98q-68 0 -114.5 -27.5t-46.5 -81t40 -84t148 -67.5 q205 -72 278.5 -134.5t73.5 -168.5q0 -174 -202 -236q197 -88 196 -248q0 -137 -106.5 -218t-272.5 -81q-123 0 -241.5 46t-196.5 128zM383 752q0 -96 211 -156q121 53 121 131q0 94 -207 147q-125 -36 -125 -122z" />
<glyph unicode="&#xa8;" d="M166 1343q0 55 38 91t103 36q70 0 107 -35.5t37 -91t-40 -90t-104 -34.5q-68 0 -104.5 33.5t-36.5 90.5zM584 1343q0 55 37.5 91t103.5 36q70 0 106.5 -35.5t36.5 -91t-40 -90t-103 -34.5q-68 0 -104.5 33.5t-36.5 90.5z" />
<glyph unicode="&#xa9;" horiz-adv-x="1658" d="M92 737q0 319 213 528.5t524 209.5q332 0 535 -202t203 -528q0 -319 -217 -532t-521 -213q-313 0 -525 194.5t-212 542.5zM219 737q0 -293 173 -456.5t437 -163.5q248 0 432.5 180t184.5 440q0 276 -172 448.5t-445 172.5q-264 0 -437 -175.5t-173 -445.5zM483 739 q0 182 93.5 295t263.5 113q131 0 213 -69.5t84 -211.5h-142q-6 76 -41.5 115t-117.5 39q-96 0 -149.5 -75t-53.5 -204q0 -272 209 -272q115 0 229 92l70 -96q-129 -129 -305 -129q-174 0 -263.5 108.5t-89.5 294.5z" />
<glyph unicode="&#xaa;" horiz-adv-x="989" d="M121 751.5q0 110.5 87 180t279 69.5q63 0 146 -10v66q0 141 -164 141q-133 0 -254 -74l-53 127q152 98 321 99q346 0 346 -291v-518h-167l-17 123q-35 -63 -105.5 -103.5t-150.5 -40.5q-119 0 -193.5 60.5t-74.5 171zM313 764q0 -47 36 -74.5t95 -27.5q78 0 133.5 52 t55.5 122v43q-57 8 -109 8q-211 0 -211 -123z" />
<glyph unicode="&#xab;" horiz-adv-x="989" d="M68 492v83l325 297l113 -106l-199 -234l199 -229l-113 -102zM498 492v83l325 297l113 -106l-199 -234l199 -229l-113 -102z" />
<glyph unicode="&#xac;" horiz-adv-x="1228" d="M66 643v168h1099v-559h-178v391h-921z" />
<glyph unicode="&#xad;" horiz-adv-x="671" d="M61 461v215h549v-215h-549z" />
<glyph unicode="&#xae;" horiz-adv-x="864" d="M57 1118q0 164 108.5 268.5t268.5 104.5q164 0 268.5 -102.5t104.5 -270.5q0 -158 -110.5 -265.5t-264.5 -107.5q-168 0 -271.5 98.5t-103.5 274.5zM139 1120q0 -141 80 -219t213 -78q119 0 204 86t85 209q0 135 -80 216t-209 81q-125 0 -209 -83t-84 -212zM297 940v365 h141q68 0 102.5 -33t34.5 -86q0 -70 -61 -101l84 -145h-84l-70 127q-10 -2 -34 -2h-41v-125h-72zM369 1126h51q78 0 78 56q0 61 -74 61h-55v-117z" />
<glyph unicode="&#xaf;" d="M223 1245v182h580v-182h-580z" />
<glyph unicode="&#xb0;" horiz-adv-x="661" d="M82 1360q0 104 73.5 176t178.5 72q102 0 174 -72t72 -176.5t-72 -175t-174 -70.5q-109 0 -180.5 70t-71.5 176zM205 1361.5q0 -61.5 34.5 -100t94.5 -38.5q55 0 91 40t36 99t-35 97t-92 38q-59 0 -94 -37t-35 -98.5z" />
<glyph unicode="&#xb1;" horiz-adv-x="1228" d="M80 520v168h444v356h178v-356h445v-168h-445v-348h445v-172h-1065v172h442v348h-444z" />
<glyph unicode="&#xb2;" horiz-adv-x="692" d="M29 1462q152 137 344 137q117 0 189.5 -58t72.5 -159q0 -119 -127 -231l-186 -166h315v-166h-582v127l256 250q41 39 55.5 55.5t31 44t16.5 54.5q0 74 -105 73q-88 0 -200 -80z" />
<glyph unicode="&#xb3;" horiz-adv-x="700" d="M14 909l74 123q117 -72 215 -71q133 0 133 90q0 84 -147 84q-37 0 -80 -7v154q188 4 188 96q0 70 -108 70q-80 0 -183 -49l-51 119q133 82 295 81q125 0 192.5 -49t67.5 -143q0 -66 -42 -115t-113 -69q195 -18 194 -187q0 -113 -87 -172t-230 -59q-197 0 -318 104z" />
<glyph unicode="&#xb4;" d="M270 1321l320 293l141 -170l-340 -258z" />
<glyph unicode="&#xb5;" horiz-adv-x="1204" d="M127 -410v1491h270v-675q0 -217 183 -218q131 0 206 131v762h271v-1081h-240v131q-80 -145 -242 -145q-109 0 -178 75v-471h-270z" />
<glyph unicode="&#xb6;" horiz-adv-x="1136" d="M80 1092q0 170 119.5 276.5t316.5 106.5h471v-1475h-182v1331h-162v-1331h-182v719q-178 16 -279.5 113.5t-101.5 259.5z" />
<glyph unicode="&#xb7;" horiz-adv-x="612" d="M160 684q0 72 41 112t114 40q72 0 116 -40t44 -105.5t-44 -106.5t-116 -41q-74 0 -114.5 40t-40.5 101z" />
<glyph unicode="&#xb8;" d="M319 -420l31 117q57 -20 117 -21q84 0 84 62q0 63 -121 63h-37l47 215h131l-24 -122q37 -4 62.5 -11.5t55 -24t45 -47t15.5 -75.5q0 -92 -62.5 -140.5t-164.5 -48.5q-107 0 -179 33z" />
<glyph unicode="&#xb9;" horiz-adv-x="591" d="M53 1456q162 37 252 129h170v-766h-219v512q-96 -18 -186 -6z" />
<glyph unicode="&#xba;" horiz-adv-x="1017" d="M109 936q0 197 112.5 305.5t288.5 108.5q174 0 286.5 -108.5t112.5 -305.5q0 -195 -113.5 -304.5t-285.5 -109.5q-184 0 -292.5 107.5t-108.5 306.5zM315 932q0 -254 195 -254q88 0 141.5 62.5t53.5 191.5q0 131 -53.5 195.5t-141.5 64.5q-90 0 -142.5 -63.5 t-52.5 -196.5z" />
<glyph unicode="&#xbb;" horiz-adv-x="993" d="M53 303l199 229l-199 234l113 106l326 -297v-83l-326 -291zM487 303l199 229l-199 234l113 106l326 -297v-83l-326 -291z" />
<glyph unicode="&#xbc;" horiz-adv-x="1812" d="M98 1354q162 37 252 129h170v-766h-219v512q-96 -18 -186 -6zM301 0l903 1475h211l-899 -1475h-215zM993 131v160l326 475h268v-473h82v-162h-82v-131h-201v131h-393zM1169 293h217v325z" />
<glyph unicode="&#xbd;" horiz-adv-x="1812" d="M88 1354q162 37 252 129h170v-766h-219v512q-96 -18 -187 -6zM231 0l904 1475h211l-900 -1475h-215zM1006 643q152 137 344 137q117 0 189.5 -58t72.5 -159q0 -119 -127 -231l-187 -166h316v-166h-582v127l256 250q41 39 55.5 55.5t31 44t16.5 53.5q0 74 -105 74 q-88 0 -201 -80z" />
<glyph unicode="&#xbe;" horiz-adv-x="1812" d="M135 807l74 123q117 -72 215 -72q133 0 133 90q0 84 -147 84q-37 0 -80 -6v154q188 4 188 96q0 70 -108 70q-80 0 -183 -50l-51 119q133 82 295 82q125 0 192.5 -49t67.5 -143q0 -66 -42 -115t-114 -70q195 -18 195 -186q0 -113 -87 -172.5t-230 -59.5q-199 1 -318 105z M399 0l904 1475h210l-899 -1475h-215zM1032 131v160l326 475h268v-473h82v-162h-82v-131h-201v131h-393zM1208 293h217v325z" />
<glyph unicode="&#xbf;" horiz-adv-x="1120" d="M96 -37q0 86 36 162t87 131t102.5 107.5t87 114t35.5 124.5v41h244v-68q0 -80 -32.5 -150.5t-80 -121.5t-93.5 -98t-78.5 -102.5t-32.5 -112.5q0 -88 52 -133t142 -45q98 0 159.5 60t61.5 173h252q0 -231 -133 -348t-356 -117q-193 0 -323 99.5t-130 283.5zM410 956.5 q0 65.5 44 107.5t113 42q74 0 116 -40t42 -103q0 -70 -42 -111t-116 -41q-70 0 -113.5 40t-43.5 105.5z" />
<glyph unicode="&#xc0;" horiz-adv-x="1413" d="M33 0l530 1475h285l530 -1475h-303l-108 334h-521l-108 -334h-305zM469 1714l111 199l364 -219l-92 -158zM522 571h367l-184 580z" />
<glyph unicode="&#xc1;" horiz-adv-x="1413" d="M33 0l530 1475h285l530 -1475h-303l-108 334h-521l-108 -334h-305zM453 1694l364 219l111 -199l-383 -178zM522 571h367l-184 580z" />
<glyph unicode="&#xc2;" horiz-adv-x="1413" d="M33 0l530 1475h285l530 -1475h-303l-108 334h-521l-108 -334h-305zM403 1661l215 229h162l224 -231l-119 -100l-180 135l-179 -135zM522 571h367l-184 580z" />
<glyph unicode="&#xc3;" horiz-adv-x="1413" d="M33 0l530 1475h285l530 -1475h-303l-108 334h-521l-108 -334h-305zM369 1632q66 205 190 205q53 0 142.5 -35t121.5 -35q29 0 45.5 14.5t36.5 61.5l127 -47q-43 -205 -192 -205q-51 0 -143.5 34t-114.5 34q-27 0 -45.5 -16.5t-38.5 -59.5zM522 571h367l-184 580z" />
<glyph unicode="&#xc4;" horiz-adv-x="1413" d="M33 0l530 1475h285l530 -1475h-303l-108 334h-521l-108 -334h-305zM350 1706q0 55 38 91t104 36q70 0 106.5 -36t36.5 -91t-40 -90t-103 -35q-68 0 -105 34t-37 91zM522 571h367l-184 580zM768 1706q0 55 38 91t103 36q70 0 107 -36t37 -91t-40 -90t-104 -35 q-68 0 -104.5 34t-36.5 91z" />
<glyph unicode="&#xc5;" horiz-adv-x="1413" d="M33 0l528 1468q-80 55 -80 164q0 96 64.5 155.5t163.5 59.5q94 0 157.5 -56t63.5 -151q0 -106 -82 -167l530 -1473h-303l-108 334h-521l-108 -334h-305zM522 571h367l-184 580zM614 1636q0 -86 95 -86q88 0 88 90q0 88 -88 89q-95 -1 -95 -93z" />
<glyph unicode="&#xc6;" horiz-adv-x="2074" d="M33 0l749 1475h1182v-250h-698v-355h635v-249h-635v-373h710v-248h-993v375h-440l-191 -375h-319zM631 606h352v629h-35z" />
<glyph unicode="&#xc7;" horiz-adv-x="1392" d="M102 737q0 338 173.5 550t490.5 212q240 0 394.5 -133t166.5 -385h-285q-8 113 -72.5 187.5t-201.5 74.5q-170 0 -266 -132t-96 -372q0 -250 99 -380t277 -130q217 0 412 170l129 -190q-225 -213 -506 -234l-18 -92q37 -4 62.5 -11t55 -23.5t45 -47t15.5 -75.5 q0 -92 -62.5 -140.5t-164.5 -48.5q-106 0 -179 33l31 117q57 -20 117 -21q84 0 84 62q0 63 -121 63h-37l41 184q-287 23 -435.5 229.5t-148.5 532.5z" />
<glyph unicode="&#xc8;" horiz-adv-x="1241" d="M150 0v1475h980v-250h-698v-355h635v-249h-635v-373h711v-248h-993zM369 1716l110 199l365 -219l-92 -158z" />
<glyph unicode="&#xc9;" horiz-adv-x="1241" d="M150 0v1475h980v-250h-698v-355h635v-249h-635v-373h711v-248h-993zM403 1696l365 219l111 -199l-383 -178z" />
<glyph unicode="&#xca;" horiz-adv-x="1241" d="M150 0v1475h980v-250h-698v-355h635v-249h-635v-373h711v-248h-993zM346 1663l215 229h162l223 -231l-119 -100l-180 135l-178 -135z" />
<glyph unicode="&#xcb;" horiz-adv-x="1241" d="M150 0v1475h980v-250h-698v-355h635v-249h-635v-373h711v-248h-993zM291 1708q0 55 38 91t103 36q70 0 106.5 -36t36.5 -91t-39.5 -90t-103.5 -35q-68 0 -104.5 34t-36.5 91zM709 1708q0 55 37.5 91t103.5 36q70 0 106.5 -36t36.5 -91t-40 -90t-103 -35q-68 0 -104.5 34 t-36.5 91z" />
<glyph unicode="&#xcc;" horiz-adv-x="589" d="M47 1714l111 199l364 -219l-92 -158zM154 0v1475h282v-1475h-282z" />
<glyph unicode="&#xcd;" horiz-adv-x="589" d="M31 1694l364 219l111 -199l-383 -178zM154 0v1475h282v-1475h-282z" />
<glyph unicode="&#xce;" horiz-adv-x="589" d="M-14 1661l215 229h161l224 -231l-119 -100l-180 135l-178 -135zM154 0v1475h282v-1475h-282z" />
<glyph unicode="&#xcf;" horiz-adv-x="589" d="M-66 1706q0 55 38 91t104 36q70 0 106.5 -36t36.5 -91t-40 -90t-103 -35q-68 0 -105 34t-37 91zM154 0v1475h282v-1475h-282zM352 1706q0 55 38 91t104 36q70 0 106.5 -36t36.5 -91t-40 -90t-103 -35q-68 0 -105 34t-37 91z" />
<glyph unicode="&#xd0;" horiz-adv-x="1472" d="M10 627v227h152v621h481q362 0 550.5 -192.5t188.5 -549.5q0 -379 -192.5 -556t-587.5 -177h-440v627h-152zM446 258h207q223 0 326.5 115.5t103.5 359.5q0 242 -104.5 363t-325.5 121h-207v-363h332v-227h-332v-369z" />
<glyph unicode="&#xd1;" horiz-adv-x="1484" d="M150 0v1475h249l656 -998v998h280v-1475h-248l-659 985v-985h-278zM422 1632q66 205 190 205q53 0 142.5 -35t122.5 -35q29 0 45 14.5t36 61.5l127 -47q-43 -205 -192 -205q-51 0 -143.5 34t-114.5 34q-27 0 -45.5 -16.5t-38.5 -59.5z" />
<glyph unicode="&#xd2;" horiz-adv-x="1585" d="M102 745q0 352 191.5 553t511.5 201q322 0 512 -200.5t190 -553.5q0 -371 -189.5 -571.5t-513 -200.5t-513 201.5t-189.5 570.5zM399 745q0 -246 106.5 -380t299.5 -134q195 0 300 133.5t105 380.5q0 229 -107.5 362.5t-295.5 133.5q-193 0 -300.5 -134.5t-107.5 -361.5z M561 1714l111 199l364 -219l-92 -158z" />
<glyph unicode="&#xd3;" horiz-adv-x="1585" d="M102 745q0 352 191.5 553t511.5 201q322 0 512 -200.5t190 -553.5q0 -371 -189.5 -571.5t-513 -200.5t-513 201.5t-189.5 570.5zM399 745q0 -246 106.5 -380t299.5 -134q195 0 300 133.5t105 380.5q0 229 -107.5 362.5t-295.5 133.5q-193 0 -300.5 -134.5t-107.5 -361.5z M545 1694l364 219l111 -199l-383 -178z" />
<glyph unicode="&#xd4;" horiz-adv-x="1585" d="M102 745q0 352 191.5 553t511.5 201q322 0 512 -200.5t190 -553.5q0 -371 -189.5 -571.5t-513 -200.5t-513 201.5t-189.5 570.5zM399 745q0 -246 106.5 -380t299.5 -134q195 0 300 133.5t105 380.5q0 229 -107.5 362.5t-295.5 133.5q-193 0 -300.5 -134.5t-107.5 -361.5z M502 1661l215 229h162l223 -231l-119 -100l-180 135l-178 -135z" />
<glyph unicode="&#xd5;" horiz-adv-x="1585" d="M102 745q0 352 191.5 553t511.5 201q322 0 512 -200.5t190 -553.5q0 -371 -189.5 -571.5t-513 -200.5t-513 201.5t-189.5 570.5zM399 745q0 -246 106.5 -380t299.5 -134q195 0 300 133.5t105 380.5q0 229 -107.5 362.5t-295.5 133.5q-193 0 -300.5 -134.5t-107.5 -361.5z M481 1632q66 205 191 205q53 0 142 -35t122 -35q29 0 45 14.5t37 61.5l127 -47q-43 -205 -193 -205q-51 0 -143 34t-115 34q-27 0 -45 -16.5t-39 -59.5z" />
<glyph unicode="&#xd6;" horiz-adv-x="1585" d="M102 745q0 352 191.5 553t511.5 201q322 0 512 -200.5t190 -553.5q0 -371 -189.5 -571.5t-513 -200.5t-513 201.5t-189.5 570.5zM399 745q0 -246 106.5 -380t299.5 -134q195 0 300 133.5t105 380.5q0 229 -107.5 362.5t-295.5 133.5q-193 0 -300.5 -134.5t-107.5 -361.5z M449 1706q0 55 37.5 91t103.5 36q70 0 106.5 -36t36.5 -91t-40 -90t-103 -35q-68 0 -104.5 34t-36.5 91zM866 1706q0 55 38 91t104 36q70 0 106.5 -36t36.5 -91t-40 -90t-103 -35q-68 0 -105 34t-37 91z" />
<glyph unicode="&#xd7;" horiz-adv-x="1228" d="M170 283l317 317l-317 315l125 125l315 -317l318 317l131 -131l-318 -315l318 -318l-125 -124l-318 319l-315 -319z" />
<glyph unicode="&#xd8;" horiz-adv-x="1585" d="M102 745q0 352 191.5 553t511.5 201q47 0 94 -6l37 119h242l-54 -176q182 -82 282.5 -260.5t100.5 -430.5q0 -371 -189.5 -571.5t-512.5 -200.5q-43 0 -125 9l-43 -146h-240l64 211q-170 86 -264.5 264t-94.5 434zM399 745q0 -293 146 -421l278 917h-16 q-193 0 -300.5 -134.5t-107.5 -361.5zM758 233q14 -2 47 -2q195 0 300 133.5t105 380.5q0 293 -168 422z" />
<glyph unicode="&#xd9;" horiz-adv-x="1456" d="M143 557v918h283v-906q0 -172 80 -258t223 -86q156 0 228.5 85t72.5 259v906h283v-918q0 -287 -150.5 -434.5t-435.5 -147.5q-281 0 -432.5 143.5t-151.5 438.5zM481 1714l111 199l364 -219l-92 -158z" />
<glyph unicode="&#xda;" horiz-adv-x="1456" d="M143 557v918h283v-906q0 -172 80 -258t223 -86q156 0 228.5 85t72.5 259v906h283v-918q0 -287 -150.5 -434.5t-435.5 -147.5q-281 0 -432.5 143.5t-151.5 438.5zM518 1694l365 219l110 -199l-383 -178z" />
<glyph unicode="&#xdb;" horiz-adv-x="1456" d="M143 557v918h283v-906q0 -172 80 -258t223 -86q156 0 228.5 85t72.5 259v906h283v-918q0 -287 -150.5 -434.5t-435.5 -147.5q-281 0 -432.5 143.5t-151.5 438.5zM444 1661l215 229h162l223 -231l-118 -100l-181 135l-178 -135z" />
<glyph unicode="&#xdc;" horiz-adv-x="1456" d="M143 557v918h283v-906q0 -172 80 -258t223 -86q156 0 228.5 85t72.5 259v906h283v-918q0 -287 -150.5 -434.5t-435.5 -147.5q-281 0 -432.5 143.5t-151.5 438.5zM395 1706q0 55 38 91t104 36q70 0 106.5 -36t36.5 -91t-40 -90t-103 -35q-68 0 -105 34t-37 91zM813 1706 q0 55 38 91t103 36q70 0 107 -36t37 -91t-40 -90t-104 -35q-68 0 -104.5 34t-36.5 91z" />
<glyph unicode="&#xdd;" horiz-adv-x="1308" d="M20 1475h310l319 -607l322 607h317l-500 -887v-588h-284v588zM461 1694l364 219l111 -199l-383 -178z" />
<glyph unicode="&#xde;" horiz-adv-x="1265" d="M123 0v1475h285v-213h249q242 0 380.5 -114t138.5 -351q0 -248 -143.5 -372t-395.5 -124h-229v-301h-285zM408 532h215q276 0 276 244q0 240 -264 240h-227v-484z" />
<glyph unicode="&#xdf;" horiz-adv-x="1273" d="M49 881v159l141 27v39q0 209 135.5 302t338.5 93q209 0 321.5 -95t112.5 -284q0 -133 -72 -226t-195 -122q360 -63 361 -393q0 -190 -113.5 -298t-292.5 -108q-160 0 -264 82l56 181q66 -41 159 -41q82 0 134.5 53t52.5 156q0 121 -84 181t-246 75v204q244 20 244 234 q0 203 -191 203q-96 0 -141 -55.5t-45 -172.5v-1075h-271v881h-141z" />
<glyph unicode="&#xe0;" horiz-adv-x="1134" d="M86 291q0 145 118 243.5t376 98.5q86 0 153 -8v80q0 184 -184 184q-90 0 -160 -24.5t-160 -78.5l-92 164q197 156 441 156q428 0 428 -397v-709h-218l-28 145q-117 -172 -340 -172q-152 0 -243 82t-91 236zM299 1444l141 170l320 -293l-121 -135zM356 295 q0 -121 148 -121q100 0 164.5 76t64.5 166v28q-51 10 -129 11q-248 0 -248 -160z" />
<glyph unicode="&#xe1;" horiz-adv-x="1134" d="M86 291q0 145 118 243.5t376 98.5q86 0 153 -8v80q0 184 -184 184q-90 0 -160 -24.5t-160 -78.5l-92 164q197 156 441 156q428 0 428 -397v-709h-218l-28 145q-117 -172 -340 -172q-152 0 -243 82t-91 236zM344 1321l320 293l141 -170l-340 -258zM356 295 q0 -121 148 -121q100 0 164.5 76t64.5 166v28q-51 10 -129 11q-248 0 -248 -160z" />
<glyph unicode="&#xe2;" horiz-adv-x="1134" d="M86 291q0 145 118 243.5t376 98.5q86 0 153 -8v80q0 184 -184 184q-90 0 -160 -24.5t-160 -78.5l-92 164q197 156 441 156q428 0 428 -397v-709h-218l-28 145q-117 -172 -340 -172q-152 0 -243 82t-91 236zM248 1262l227 297h162l227 -295l-119 -84l-186 182l-186 -182z M356 295q0 -121 148 -121q100 0 164.5 76t64.5 166v28q-51 10 -129 11q-248 0 -248 -160z" />
<glyph unicode="&#xe3;" horiz-adv-x="1134" d="M86 291q0 145 118 243.5t376 98.5q86 0 153 -8v80q0 184 -184 184q-90 0 -160 -24.5t-160 -78.5l-92 164q197 156 441 156q428 0 428 -397v-709h-218l-28 145q-117 -172 -340 -172q-152 0 -243 82t-91 236zM219 1257q66 205 191 205q53 0 142 -34.5t122 -34.5q29 0 45 14 t37 61l127 -47q-43 -205 -193 -204q-51 0 -143 33.5t-115 33.5q-27 0 -45 -16.5t-39 -59.5zM356 295q0 -121 148 -121q100 0 164.5 76t64.5 166v28q-51 10 -129 11q-248 0 -248 -160z" />
<glyph unicode="&#xe4;" horiz-adv-x="1134" d="M86 291q0 145 118 243.5t376 98.5q86 0 153 -8v80q0 184 -184 184q-90 0 -160 -24.5t-160 -78.5l-92 164q197 156 441 156q428 0 428 -397v-709h-218l-28 145q-117 -172 -340 -172q-152 0 -243 82t-91 236zM207 1343q0 55 38 91t103 36q70 0 107 -35.5t37 -91t-40 -90 t-104 -34.5q-68 0 -104.5 33.5t-36.5 90.5zM356 295q0 -121 148 -121q100 0 164.5 76t64.5 166v28q-51 10 -129 11q-248 0 -248 -160zM625 1343q0 55 37.5 91t103.5 36q70 0 106.5 -35.5t36.5 -91t-40 -90t-103 -34.5q-68 0 -104.5 33.5t-36.5 90.5z" />
<glyph unicode="&#xe5;" horiz-adv-x="1134" d="M86 291q0 145 118 243.5t376 98.5q86 0 153 -8v80q0 184 -184 184q-90 0 -160 -24.5t-160 -78.5l-92 164q197 156 441 156q428 0 428 -397v-709h-218l-28 145q-117 -172 -340 -172q-152 0 -243 82t-91 236zM340 1364q0 90 59.5 144.5t149.5 54.5q88 0 146.5 -52.5 t58.5 -138.5q0 -88 -58.5 -141t-146.5 -53q-94 0 -151.5 49t-57.5 137zM356 295q0 -121 148 -121q100 0 164.5 76t64.5 166v28q-51 10 -129 11q-248 0 -248 -160zM463 1368q0 -80 86 -80q82 0 82 84q0 80 -82 80q-86 0 -86 -84z" />
<glyph unicode="&#xe6;" horiz-adv-x="1808" d="M86 297q0 147 110.5 243.5t352.5 96.5q92 0 184 -14v82q0 193 -196 192q-168 0 -326 -96l-74 170q88 61 205 98t227 37q121 0 200 -36t132 -126q123 162 377 162q213 0 328.5 -131t115.5 -389q0 -94 -4 -131h-698q20 -256 268 -256q141 0 318 92l88 -178 q-188 -139 -439 -140q-262 0 -397 158q-147 -158 -387 -158q-180 0 -282.5 82t-102.5 242zM358 307q0 -131 154 -131q80 0 148.5 35t107.5 82q-27 63 -31 151q-49 12 -114 13q-265 0 -265 -150zM1022 633h440q0 268 -202 268q-121 0 -179.5 -87t-58.5 -181z" />
<glyph unicode="&#xe7;" horiz-adv-x="1134" d="M94 539q0 258 146.5 412.5t386.5 154.5q207 0 320.5 -110.5t119.5 -321.5h-227q-10 104 -65.5 157.5t-143.5 53.5q-117 0 -183.5 -86t-66.5 -250q0 -160 67.5 -254t198.5 -94t307 98l101 -172q-164 -137 -400 -152l-16 -81q37 -4 62.5 -11.5t55 -24t45 -47t15.5 -75.5 q0 -92 -62.5 -140.5t-164.5 -48.5q-106 0 -178 33l30 117q57 -20 117 -21q84 0 84 62q0 63 -121 63h-37l39 179q-199 25 -314.5 172t-115.5 387z" />
<glyph unicode="&#xe8;" horiz-adv-x="1124" d="M94 532q0 262 142.5 418t381.5 156q227 0 346 -132t119 -392q0 -96 -4 -133h-698q20 -250 268 -250q141 0 318 92l88 -178q-188 -139 -439 -140q-246 0 -384 144.5t-138 414.5zM336 1444l141 170l320 -293l-121 -135zM383 645h440q0 256 -202 256q-119 0 -176.5 -83 t-61.5 -173z" />
<glyph unicode="&#xe9;" horiz-adv-x="1124" d="M94 532q0 262 142.5 418t381.5 156q227 0 346 -132t119 -392q0 -96 -4 -133h-698q20 -250 268 -250q141 0 318 92l88 -178q-188 -139 -439 -140q-246 0 -384 144.5t-138 414.5zM360 1321l320 293l141 -170l-340 -258zM383 645h440q0 256 -202 256q-119 0 -176.5 -83 t-61.5 -173z" />
<glyph unicode="&#xea;" horiz-adv-x="1124" d="M94 532q0 262 142.5 418t381.5 156q227 0 346 -132t119 -392q0 -96 -4 -133h-698q20 -250 268 -250q141 0 318 92l88 -178q-188 -139 -439 -140q-246 0 -384 144.5t-138 414.5zM289 1262l227 297h162l227 -295l-119 -84l-186 182l-186 -182zM383 645h440q0 256 -202 256 q-119 0 -176.5 -83t-61.5 -173z" />
<glyph unicode="&#xeb;" horiz-adv-x="1124" d="M94 532q0 262 142.5 418t381.5 156q227 0 346 -132t119 -392q0 -96 -4 -133h-698q20 -250 268 -250q141 0 318 92l88 -178q-188 -139 -439 -140q-246 0 -384 144.5t-138 414.5zM238 1343q0 55 37.5 91t103.5 36q70 0 106.5 -35.5t36.5 -91t-40 -90t-103 -34.5 q-68 0 -104.5 33.5t-36.5 90.5zM383 645h440q0 256 -202 256q-119 0 -176.5 -83t-61.5 -173zM655 1343q0 55 38 91t104 36q70 0 106.5 -35.5t36.5 -91t-40 -90t-103 -34.5q-68 0 -105 33.5t-37 90.5z" />
<glyph unicode="&#xec;" horiz-adv-x="528" d="M31 1444l141 170l320 -293l-121 -135zM150 0v1081h270v-1081h-270z" />
<glyph unicode="&#xed;" horiz-adv-x="528" d="M25 1321l319 293l141 -170l-340 -258zM150 0v1081h270v-1081h-270z" />
<glyph unicode="&#xee;" horiz-adv-x="528" d="M-45 1262l227 297h162l227 -295l-118 -84l-187 182l-186 -182zM150 0v1081h270v-1081h-270z" />
<glyph unicode="&#xef;" horiz-adv-x="528" d="M-80 1343q0 55 38 91t103 36q70 0 107 -35.5t37 -91t-40 -90t-104 -34.5q-68 0 -104.5 33.5t-36.5 90.5zM150 0v1081h270v-1081h-270zM338 1343q0 55 38 91t103 36q70 0 107 -35.5t37 -91t-40 -90t-104 -34.5q-68 0 -104.5 33.5t-36.5 90.5z" />
<glyph unicode="&#xf0;" horiz-adv-x="1159" d="M92 440q0 209 109.5 339t296.5 130q180 0 319 -143q-20 203 -133 330l-154 -109l-114 154l110 78q-104 55 -250 86l62 176q219 -27 381 -125l172 121l115 -152l-136 -96q197 -225 197 -615q0 -301 -130 -471t-380 -170q-207 0 -336 122t-129 345zM348 436 q0 -127 60.5 -189.5t160.5 -62.5q248 0 244 389q-106 123 -248 123q-96 0 -156.5 -67.5t-60.5 -192.5z" />
<glyph unicode="&#xf1;" horiz-adv-x="1159" d="M137 0v1081h228l22 -143q145 168 350 168q168 0 255 -100.5t87 -280.5v-725h-272v643q0 121 -42 176t-128 55q-125 0 -227 -120v-754h-273zM285 1257q66 205 190 205q53 0 142.5 -34.5t121.5 -34.5q29 0 45.5 14t36.5 61l127 -47q-43 -205 -192 -204q-51 0 -143.5 33.5 t-114.5 33.5q-27 0 -45.5 -16.5t-38.5 -59.5z" />
<glyph unicode="&#xf2;" horiz-adv-x="1216" d="M94 535q0 272 150.5 421.5t390.5 149.5q238 0 386 -147.5t148 -417.5q0 -268 -152.5 -418t-395.5 -150q-246 0 -386.5 147t-140.5 415zM381 541q0 -174 67.5 -256t182.5 -82q117 0 184.5 82t67.5 256q0 172 -69 256t-183.5 84t-182 -86t-67.5 -254zM383 1444l141 170 l320 -293l-121 -135z" />
<glyph unicode="&#xf3;" horiz-adv-x="1216" d="M94 535q0 272 150.5 421.5t390.5 149.5q238 0 386 -147.5t148 -417.5q0 -268 -152.5 -418t-395.5 -150q-246 0 -386.5 147t-140.5 415zM381 541q0 -174 67.5 -256t182.5 -82q117 0 184.5 82t67.5 256q0 172 -69 256t-183.5 84t-182 -86t-67.5 -254zM385 1321l320 293 l141 -170l-340 -258z" />
<glyph unicode="&#xf4;" horiz-adv-x="1216" d="M94 535q0 272 150.5 421.5t390.5 149.5q238 0 386 -147.5t148 -417.5q0 -268 -152.5 -418t-395.5 -150q-246 0 -386.5 147t-140.5 415zM326 1262l227 297h162l227 -295l-119 -84l-186 182l-186 -182zM381 541q0 -174 67.5 -256t182.5 -82q117 0 184.5 82t67.5 256 q0 172 -69 256t-183.5 84t-182 -86t-67.5 -254z" />
<glyph unicode="&#xf5;" horiz-adv-x="1216" d="M94 535q0 272 150.5 421.5t390.5 149.5q238 0 386 -147.5t148 -417.5q0 -268 -152.5 -418t-395.5 -150q-246 0 -386.5 147t-140.5 415zM299 1257q66 205 190 205q53 0 142.5 -34.5t122.5 -34.5q29 0 45 14t37 61l127 -47q-43 -205 -193 -204q-51 0 -143 33.5t-115 33.5 q-27 0 -45 -16.5t-39 -59.5zM381 541q0 -174 67.5 -256t182.5 -82q117 0 184.5 82t67.5 256q0 172 -69 256t-183.5 84t-182 -86t-67.5 -254z" />
<glyph unicode="&#xf6;" horiz-adv-x="1216" d="M94 535q0 272 150.5 421.5t390.5 149.5q238 0 386 -147.5t148 -417.5q0 -268 -152.5 -418t-395.5 -150q-246 0 -386.5 147t-140.5 415zM274 1343q0 55 38 91t104 36q70 0 106.5 -35.5t36.5 -91t-40 -90t-103 -34.5q-68 0 -105 33.5t-37 90.5zM381 541q0 -174 67.5 -256 t182.5 -82q117 0 184.5 82t67.5 256q0 172 -69 256t-183.5 84t-182 -86t-67.5 -254zM692 1343q0 55 38 91t104 36q70 0 106.5 -35.5t36.5 -91t-40 -90t-103 -34.5q-68 0 -105 33.5t-37 90.5z" />
<glyph unicode="&#xf7;" horiz-adv-x="1228" d="M82 516v172h1065v-172h-1065zM494 250q0 47 35.5 83t82.5 36q49 0 83 -35t34 -84q0 -47 -33.5 -82t-85.5 -35q-45 0 -80.5 36t-35.5 81zM496 958.5q0 47.5 34.5 83t83.5 35.5q47 0 81 -34.5t34 -84.5q0 -47 -32.5 -80.5t-82 -33.5t-84 33.5t-34.5 81z" />
<glyph unicode="&#xf8;" horiz-adv-x="1222" d="M94 535q0 272 150.5 421.5t390.5 149.5q25 0 74 -4l34 112h203l-51 -165q129 -63 201.5 -193.5t72.5 -314.5q0 -268 -152.5 -418t-395.5 -150q-43 0 -62 2l-41 -131h-201l56 176q-279 128 -279 515zM381 541q0 -174 72 -262l186 602h-8q-115 0 -182.5 -86t-67.5 -254z M629 203h2q117 0 184.5 82t67.5 256q0 168 -68 254z" />
<glyph unicode="&#xf9;" horiz-adv-x="1198" d="M129 348v733h272v-667q0 -106 37 -158.5t125 -52.5q125 0 225 116v762h273v-1081h-223l-23 141q-147 -168 -342 -168q-344 0 -344 375zM348 1444l141 170l320 -293l-121 -135z" />
<glyph unicode="&#xfa;" horiz-adv-x="1198" d="M129 348v733h272v-667q0 -106 37 -158.5t125 -52.5q125 0 225 116v762h273v-1081h-223l-23 141q-147 -168 -342 -168q-344 0 -344 375zM393 1321l320 293l141 -170l-340 -258z" />
<glyph unicode="&#xfb;" horiz-adv-x="1198" d="M129 348v733h272v-667q0 -106 37 -158.5t125 -52.5q125 0 225 116v762h273v-1081h-223l-23 141q-147 -168 -342 -168q-344 0 -344 375zM297 1262l227 297h162l227 -295l-118 -84l-187 182l-186 -182z" />
<glyph unicode="&#xfc;" horiz-adv-x="1198" d="M129 348v733h272v-667q0 -106 37 -158.5t125 -52.5q125 0 225 116v762h273v-1081h-223l-23 141q-147 -168 -342 -168q-344 0 -344 375zM244 1343q0 55 37.5 91t103.5 36q70 0 106.5 -35.5t36.5 -91t-39.5 -90t-103.5 -34.5q-68 0 -104.5 33.5t-36.5 90.5zM662 1343 q0 55 37.5 91t103.5 36q70 0 106.5 -35.5t36.5 -91t-40 -90t-103 -34.5q-68 0 -104.5 33.5t-36.5 90.5z" />
<glyph unicode="&#xfd;" horiz-adv-x="1087" d="M33 1081h284l224 -798l241 798h273l-365 -1038q-31 -88 -44 -125t-39.5 -100.5t-46 -88t-52.5 -61.5t-67.5 -49t-83 -23.5t-109.5 -11.5q-90 0 -182 25l20 192q76 -14 137 -14q66 0 106 29.5t70 122.5l11 30zM346 1321l320 293l141 -170l-340 -258z" />
<glyph unicode="&#xfe;" horiz-adv-x="1230" d="M137 -410v1885h266v-537q143 168 353 168q193 0 304 -145.5t111 -416t-113.5 -420t-334.5 -149.5q-190 0 -313 134v-519h-273zM410 326q90 -123 229 -123q248 0 248 332q0 346 -236 346q-119 0 -241 -142v-413z" />
<glyph unicode="&#xff;" horiz-adv-x="1087" d="M33 1081h284l224 -798l241 798h273l-365 -1038q-31 -88 -44 -125t-39.5 -100.5t-46 -88t-52.5 -61.5t-67.5 -49t-83 -23.5t-109.5 -11.5q-90 0 -182 25l20 192q76 -14 137 -14q66 0 106 29.5t70 122.5l11 30zM197 1343q0 55 37.5 91t103.5 36q70 0 106.5 -35.5t36.5 -91 t-40 -90t-103 -34.5q-68 0 -104.5 33.5t-36.5 90.5zM614 1343q0 55 38 91t104 36q70 0 106.5 -35.5t36.5 -91t-40 -90t-103 -34.5q-68 0 -105 33.5t-37 90.5z" />
<glyph unicode="&#x152;" horiz-adv-x="2293" d="M102 748q0 362 183.5 557.5t482.5 195.5q154 0 276.5 -66.5t182.5 -183.5v224h958v-250h-700v-355h637v-249h-637v-371h710v-250h-968v231q-61 -123 -189.5 -189.5t-292.5 -66.5q-291 0 -467 198t-176 575zM399 748q0 -246 106.5 -380.5t299.5 -134.5q184 0 292.5 128 t108.5 384q0 246 -107.5 371t-293.5 125q-190 0 -298 -133t-108 -360z" />
<glyph unicode="&#x153;" horiz-adv-x="1941" d="M94 535q0 270 147.5 420.5t374.5 150.5q279 0 396 -244q45 104 146.5 174t242.5 70q219 0 336.5 -131t117.5 -389q0 -106 -6 -135h-696q29 -252 270 -252q152 0 318 94l92 -184q-186 -135 -430 -136q-293 0 -399 228q-127 -227 -410 -228q-227 0 -363.5 148t-136.5 414z M381 541q0 -174 67.5 -258t182 -84t183.5 84t69 258t-69 259t-183 85q-113 0 -181.5 -87t-68.5 -257zM1155 633h440q-4 268 -204 268q-82 0 -138.5 -49t-76 -105.5t-21.5 -113.5z" />
<glyph unicode="&#x178;" horiz-adv-x="1308" d="M20 1475h310l319 -607l322 607h317l-500 -887v-588h-284v588zM305 1706q0 55 38 91t103 36q70 0 107 -36t37 -91t-40 -90t-104 -35q-68 0 -104.5 34t-36.5 91zM723 1706q0 55 38 91t103 36q70 0 107 -36t37 -91t-40 -90t-104 -35q-68 0 -104.5 34t-36.5 91z" />
<glyph unicode="&#x2c6;" d="M205 1262l227 297h162l227 -295l-119 -84l-186 182l-186 -182z" />
<glyph unicode="&#x2dc;" d="M184 1257q66 205 191 205q53 0 142 -34.5t122 -34.5q29 0 45 14t37 61l127 -47q-43 -205 -193 -204q-51 0 -143 33.5t-115 33.5q-27 0 -45 -16.5t-39 -59.5z" />
<glyph unicode="&#x2000;" horiz-adv-x="957" />
<glyph unicode="&#x2001;" horiz-adv-x="1915" />
<glyph unicode="&#x2002;" horiz-adv-x="957" />
<glyph unicode="&#x2003;" horiz-adv-x="1915" />
<glyph unicode="&#x2004;" horiz-adv-x="638" />
<glyph unicode="&#x2005;" horiz-adv-x="478" />
<glyph unicode="&#x2006;" horiz-adv-x="319" />
<glyph unicode="&#x2007;" horiz-adv-x="319" />
<glyph unicode="&#x2008;" horiz-adv-x="239" />
<glyph unicode="&#x2009;" horiz-adv-x="383" />
<glyph unicode="&#x200a;" horiz-adv-x="106" />
<glyph unicode="&#x2010;" horiz-adv-x="671" d="M61 461v215h549v-215h-549z" />
<glyph unicode="&#x2011;" horiz-adv-x="671" d="M61 461v215h549v-215h-549z" />
<glyph unicode="&#x2012;" horiz-adv-x="671" d="M61 461v215h549v-215h-549z" />
<glyph unicode="&#x2013;" d="M0 463v174h1024v-174h-1024z" />
<glyph unicode="&#x2014;" horiz-adv-x="2048" d="M0 461v176h2048v-176h-2048z" />
<glyph unicode="&#x2018;" horiz-adv-x="421" d="M63 1221q0 236 250 315l39 -92q-131 -55 -135 -166q16 8 39 8q47 0 75.5 -31.5t28.5 -78.5q0 -55 -39.5 -91t-101.5 -36q-78 0 -117 48t-39 124z" />
<glyph unicode="&#x2019;" horiz-adv-x="421" d="M61 1354q0 55 40 91t102 36q78 0 116.5 -48.5t38.5 -123.5q0 -236 -249 -316l-39 92q131 55 135 166q-16 -8 -39 -8q-47 0 -76 32t-29 79z" />
<glyph unicode="&#x201a;" horiz-adv-x="421" d="M70 86q0 55 40 91t101 36q78 0 117 -48t39 -124q0 -236 -250 -315l-39 92q131 55 135 166q-16 -8 -39 -9q-47 0 -75.5 32t-28.5 79z" />
<glyph unicode="&#x201c;" horiz-adv-x="782" d="M63 1221q0 236 250 315l39 -92q-131 -55 -135 -166q16 8 39 8q47 0 75.5 -31.5t28.5 -78.5q0 -55 -39.5 -91t-101.5 -36q-78 0 -117 48t-39 124zM424 1221q0 236 250 315l39 -92q-131 -55 -135 -166q16 8 38 8q47 0 76 -31.5t29 -78.5q0 -55 -40 -91t-101 -36 q-78 0 -117 48t-39 124z" />
<glyph unicode="&#x201d;" horiz-adv-x="782" d="M61 1354q0 55 40 91t102 36q78 0 116.5 -48.5t38.5 -123.5q0 -236 -249 -316l-39 92q131 55 135 166q-16 -8 -39 -8q-47 0 -76 32t-29 79zM422 1354q0 55 40 91t101 36q78 0 117 -48.5t39 -123.5q0 -236 -250 -316l-39 92q131 55 135 166q-16 -8 -39 -8q-47 0 -75.5 32 t-28.5 79z" />
<glyph unicode="&#x201e;" horiz-adv-x="780" d="M70 86q0 55 40 91t101 36q78 0 117 -48t39 -124q0 -236 -250 -315l-39 92q131 55 135 166q-16 -8 -39 -9q-47 0 -75.5 32t-28.5 79zM428 86q0 55 40 91t101 36q78 0 117 -48t39 -124q0 -236 -250 -315l-39 92q131 55 135 166q-16 -8 -39 -9q-47 0 -75.5 32t-28.5 79z" />
<glyph unicode="&#x2022;" d="M246 639q0 115 78.5 192.5t191.5 77.5q109 0 189.5 -78.5t80.5 -191.5t-79.5 -192.5t-192.5 -79.5q-115 0 -191.5 79.5t-76.5 192.5z" />
<glyph unicode="&#x2026;" horiz-adv-x="1781" d="M158 117q0 70 41 110.5t114 40.5q72 0 115 -40t43 -105q0 -68 -43 -109t-115 -41q-74 0 -114.5 40.5t-40.5 103.5zM731 117q0 70 41 110.5t115 40.5q72 0 114.5 -40t42.5 -105q0 -68 -43 -109t-114 -41q-74 0 -115 40.5t-41 103.5zM1311 117q0 70 41 110.5t114 40.5 q72 0 115 -40t43 -105q0 -68 -43 -109t-115 -41q-74 0 -114.5 40.5t-40.5 103.5z" />
<glyph unicode="&#x202f;" horiz-adv-x="383" />
<glyph unicode="&#x2039;" horiz-adv-x="559" d="M68 492v83l325 297l113 -106l-199 -234l199 -229l-113 -102z" />
<glyph unicode="&#x203a;" horiz-adv-x="559" d="M53 303l199 229l-199 234l113 106l326 -297v-83l-326 -291z" />
<glyph unicode="&#x205f;" horiz-adv-x="478" />
<glyph unicode="&#x20ac;" horiz-adv-x="1261" d="M-25 492l15 157h145q-4 53 -4 72q0 43 2 70h-133l12 157h142q51 229 205.5 378t383.5 149q295 0 474 -224l-132 -137q-63 70 -153 112t-182 42q-129 0 -215 -86t-123 -234h592l-13 -157h-602q-2 -27 -2 -68q0 -20 4 -74h588l-14 -157h-547q33 -139 122 -216t214 -77 q188 0 348 139l119 -154q-225 -211 -506 -211q-221 0 -369.5 144.5t-189.5 374.5h-181z" />
<glyph unicode="&#x2122;" horiz-adv-x="1302" d="M59 1362v113h469v-113h-174v-430h-121v430h-174zM582 932l59 543h137l129 -371l127 371h129l62 -543h-115l-35 358l-127 -358h-90l-123 358l-37 -358h-116z" />
<glyph unicode="&#x25fc;" horiz-adv-x="1080" d="M0 0v1080h1080v-1080h-1080z" />
<glyph unicode="&#xfb01;" horiz-adv-x="1230" d="M55 877v161l135 31v113q0 150 75 233.5t229 83.5q100 0 180 -22l-15 -179q-49 14 -94 15q-102 0 -102 -121v-111h618v-1081h-272v877h-346v-877h-273v877h-135zM786 1358q0 66 46.5 102.5t117.5 36.5q74 0 119 -37t45 -102q0 -63 -45 -99t-119 -36q-70 0 -117 36t-47 99z " />
<glyph unicode="&#xfb02;" horiz-adv-x="1226" d="M55 877v161l135 31v113q0 150 75 233.5t229 83.5q100 0 180 -22l-15 -179q-49 14 -94 15q-102 0 -102 -121v-111h348v394h272v-1475h-272v877h-348v-877h-273v877h-135z" />
<glyph unicode="&#xfb03;" horiz-adv-x="1849" d="M55 877v161l135 31v88q0 150 75 234t229 84q90 0 184 -23l-19 -178q-49 14 -94 14q-102 0 -102 -121v-86h346v101q0 150 74.5 233.5t228.5 83.5q100 0 180 -22l-14 -179q-49 14 -94 15q-102 0 -103 -121v-111h619v-1081h-273v877h-346v-877h-272v877h-346v-877h-273v877 h-135zM1405 1358q0 66 46 102.5t118 36.5q74 0 119 -37t45 -102q0 -63 -45.5 -99t-118.5 -36q-70 0 -117 36t-47 99z" />
<glyph unicode="&#xfb04;" horiz-adv-x="1841" d="M55 877v161l135 31v88q0 150 75 234t229 84q90 0 184 -23l-19 -178q-49 14 -94 14q-102 0 -102 -121v-86h342v101q0 150 74.5 233.5t228.5 83.5q100 0 180 -22l-14 -179q-49 14 -94 15q-102 0 -103 -121v-111h348v394h273v-1475h-273v877h-348v-877h-272v877h-342v-877 h-273v877h-135z" />
</font>
</defs>
</svg>
